<svg width="192" height="28" viewBox="0 0 192 28" fill="none" xmlns="http://www.w3.org/2000/svg">
<path d="M2.11364 5.54545H4.63636L10.5682 20.0341H10.7727L16.7045 5.54545H19.2273V23H17.25V9.73864H17.0795L11.625 23H9.71591L4.26136 9.73864H4.09091V23H2.11364V5.54545ZM28.6811 23.2727C27.4197 23.2727 26.3317 22.9943 25.4169 22.4375C24.5078 21.875 23.8061 21.0909 23.3118 20.0852C22.8232 19.0739 22.5788 17.8977 22.5788 16.5568C22.5788 15.2159 22.8232 14.0341 23.3118 13.0114C23.8061 11.983 24.4936 11.1818 25.3743 10.608C26.2607 10.0284 27.2947 9.73864 28.4766 9.73864C29.1584 9.73864 29.8317 9.85227 30.4964 10.0795C31.1612 10.3068 31.7663 10.6761 32.3118 11.1875C32.8572 11.6932 33.2919 12.3636 33.6158 13.1989C33.9396 14.0341 34.1016 15.0625 34.1016 16.2841V17.1364H24.0107V15.3977H32.0561C32.0561 14.6591 31.9084 14 31.6129 13.4205C31.3232 12.8409 30.9084 12.3835 30.3686 12.0483C29.8345 11.7131 29.2038 11.5455 28.4766 11.5455C27.6754 11.5455 26.9822 11.7443 26.397 12.142C25.8175 12.5341 25.3714 13.0455 25.0589 13.6761C24.7464 14.3068 24.5902 14.983 24.5902 15.7045V16.8636C24.5902 17.8523 24.7607 18.6903 25.1016 19.3778C25.4482 20.0597 25.9283 20.5795 26.5419 20.9375C27.1555 21.2898 27.8686 21.4659 28.6811 21.4659C29.2095 21.4659 29.6868 21.392 30.1129 21.2443C30.5447 21.0909 30.9169 20.8636 31.2294 20.5625C31.5419 20.2557 31.7834 19.875 31.9538 19.4205L33.897 19.9659C33.6925 20.625 33.3487 21.2045 32.8658 21.7045C32.3828 22.1989 31.7862 22.5852 31.076 22.8636C30.3658 23.1364 29.5675 23.2727 28.6811 23.2727ZM45.9226 15.5341V17.4091H38.6953V15.5341H45.9226ZM39.1726 9.90909V23H37.1612V9.90909H39.1726ZM47.4567 9.90909V23H45.4453V9.90909H47.4567ZM56.6186 23.2727C55.3572 23.2727 54.2692 22.9943 53.3544 22.4375C52.4453 21.875 51.7436 21.0909 51.2493 20.0852C50.7607 19.0739 50.5163 17.8977 50.5163 16.5568C50.5163 15.2159 50.7607 14.0341 51.2493 13.0114C51.7436 11.983 52.4311 11.1818 53.3118 10.608C54.1982 10.0284 55.2322 9.73864 56.4141 9.73864C57.0959 9.73864 57.7692 9.85227 58.4339 10.0795C59.0987 10.3068 59.7038 10.6761 60.2493 11.1875C60.7947 11.6932 61.2294 12.3636 61.5533 13.1989C61.8771 14.0341 62.0391 15.0625 62.0391 16.2841V17.1364H51.9482V15.3977H59.9936C59.9936 14.6591 59.8459 14 59.5504 13.4205C59.2607 12.8409 58.8459 12.3835 58.3061 12.0483C57.772 11.7131 57.1413 11.5455 56.4141 11.5455C55.6129 11.5455 54.9197 11.7443 54.3345 12.142C53.755 12.5341 53.3089 13.0455 52.9964 13.6761C52.6839 14.3068 52.5277 14.983 52.5277 15.7045V16.8636C52.5277 17.8523 52.6982 18.6903 53.0391 19.3778C53.3857 20.0597 53.8658 20.5795 54.4794 20.9375C55.093 21.2898 55.8061 21.4659 56.6186 21.4659C57.147 21.4659 57.6243 21.392 58.0504 21.2443C58.4822 21.0909 58.8544 20.8636 59.1669 20.5625C59.4794 20.2557 59.7209 19.875 59.8913 19.4205L61.8345 19.9659C61.63 20.625 61.2862 21.2045 60.8033 21.7045C60.3203 22.1989 59.7237 22.5852 59.0135 22.8636C58.3033 23.1364 57.505 23.2727 56.6186 23.2727ZM63.701 26.75V21.125H64.7919C65.0589 20.8466 65.2891 20.5455 65.4822 20.2216C65.6754 19.8977 65.843 19.5142 65.9851 19.071C66.1328 18.6222 66.2578 18.0767 66.3601 17.4347C66.4624 16.7869 66.5533 16.0057 66.6328 15.0909L67.076 9.90909H75.3942V21.125H77.4055V26.75H75.3942V23H65.7124V26.75H63.701ZM67.076 21.125H73.3828V11.7841H68.951L68.6101 15.0909C68.468 16.4602 68.2919 17.6562 68.0817 18.679C67.8714 19.7017 67.5362 20.517 67.076 21.125ZM79.2571 23L84.5753 16.3523L79.3253 9.90909H81.7116L86.0753 15.5H87.1662V9.90909H89.1776V15.5H90.2344L94.598 9.90909H96.9844L91.7685 16.3523L97.0526 23H94.6321L90.2003 17.375H89.1776V23H87.1662V17.375H86.1435L81.6776 23H79.2571ZM104.876 23.2727C103.615 23.2727 102.527 22.9943 101.612 22.4375C100.703 21.875 100.001 21.0909 99.5071 20.0852C99.0185 19.0739 98.7741 17.8977 98.7741 16.5568C98.7741 15.2159 99.0185 14.0341 99.5071 13.0114C100.001 11.983 100.689 11.1818 101.57 10.608C102.456 10.0284 103.49 9.73864 104.672 9.73864C105.354 9.73864 106.027 9.85227 106.692 10.0795C107.357 10.3068 107.962 10.6761 108.507 11.1875C109.053 11.6932 109.487 12.3636 109.811 13.1989C110.135 14.0341 110.297 15.0625 110.297 16.2841V17.1364H100.206V15.3977H108.251C108.251 14.6591 108.104 14 107.808 13.4205C107.518 12.8409 107.104 12.3835 106.564 12.0483C106.03 11.7131 105.399 11.5455 104.672 11.5455C103.871 11.5455 103.178 11.7443 102.592 12.142C102.013 12.5341 101.567 13.0455 101.254 13.6761C100.942 14.3068 100.786 14.983 100.786 15.7045V16.8636C100.786 17.8523 100.956 18.6903 101.297 19.3778C101.643 20.0597 102.124 20.5795 102.737 20.9375C103.351 21.2898 104.064 21.4659 104.876 21.4659C105.405 21.4659 105.882 21.392 106.308 21.2443C106.74 21.0909 107.112 20.8636 107.425 20.5625C107.737 20.2557 107.979 19.875 108.149 19.4205L110.092 19.9659C109.888 20.625 109.544 21.2045 109.061 21.7045C108.578 22.1989 107.982 22.5852 107.271 22.8636C106.561 23.1364 105.763 23.2727 104.876 23.2727ZM113.357 27.9091V9.90909H115.3V11.9886H115.538C115.686 11.7614 115.891 11.4716 116.152 11.1193C116.419 10.7614 116.8 10.4432 117.294 10.1648C117.794 9.88068 118.47 9.73864 119.322 9.73864C120.425 9.73864 121.396 10.0142 122.237 10.5653C123.078 11.1165 123.734 11.8977 124.206 12.9091C124.678 13.9205 124.913 15.1136 124.913 16.4886C124.913 17.875 124.678 19.0767 124.206 20.0938C123.734 21.1051 123.081 21.8892 122.246 22.446C121.411 22.9972 120.447 23.2727 119.357 23.2727C118.516 23.2727 117.842 23.1335 117.337 22.8551C116.831 22.571 116.442 22.25 116.169 21.892C115.896 21.5284 115.686 21.2273 115.538 20.9886H115.368V27.9091H113.357ZM115.334 16.4545C115.334 17.4432 115.479 18.3153 115.768 19.071C116.058 19.821 116.482 20.4091 117.038 20.8352C117.595 21.2557 118.277 21.4659 119.084 21.4659C119.925 21.4659 120.626 21.2443 121.189 20.8011C121.757 20.3523 122.183 19.75 122.467 18.9943C122.757 18.233 122.902 17.3864 122.902 16.4545C122.902 15.5341 122.76 14.7045 122.476 13.9659C122.197 13.2216 121.774 12.6335 121.206 12.2017C120.643 11.7642 119.936 11.5455 119.084 11.5455C118.266 11.5455 117.578 11.7528 117.021 12.1676C116.464 12.5767 116.044 13.1506 115.76 13.8892C115.476 14.6222 115.334 15.4773 115.334 16.4545Z" fill="black"/>
<path d="M141.311 5.54545V23H139.197V7.42045H130.402V23H128.288V5.54545H141.311ZM144.143 23V21.125H144.62C145.012 21.125 145.339 21.0483 145.6 20.8949C145.862 20.7358 146.072 20.4602 146.231 20.0682C146.396 19.6705 146.521 19.1193 146.606 18.4148C146.697 17.7045 146.762 16.8011 146.802 15.7045L147.04 9.90909H155.768V23H153.756V11.7841H148.95L148.745 16.4545C148.7 17.5284 148.603 18.4744 148.455 19.2926C148.313 20.1051 148.094 20.7869 147.799 21.3381C147.509 21.8892 147.123 22.304 146.64 22.5824C146.157 22.8608 145.552 23 144.825 23H144.143ZM165.731 15.6364V17.5114H158.81V15.6364H165.731ZM160.515 9.90909V23H158.504V9.90909H160.515ZM169.754 23.2727C168.572 23.2727 167.535 22.9915 166.643 22.429C165.756 21.8665 165.063 21.0795 164.563 20.0682C164.069 19.0568 163.822 17.875 163.822 16.5227C163.822 15.1591 164.069 13.9687 164.563 12.9517C165.063 11.9347 165.756 11.1449 166.643 10.5824C167.535 10.0199 168.572 9.73864 169.754 9.73864C170.935 9.73864 171.969 10.0199 172.856 10.5824C173.748 11.1449 174.441 11.9347 174.935 12.9517C175.435 13.9687 175.685 15.1591 175.685 16.5227C175.685 17.875 175.435 19.0568 174.935 20.0682C174.441 21.0795 173.748 21.8665 172.856 22.429C171.969 22.9915 170.935 23.2727 169.754 23.2727ZM169.754 21.4659C170.651 21.4659 171.39 21.2358 171.969 20.7756C172.549 20.3153 172.978 19.7102 173.256 18.9602C173.535 18.2102 173.674 17.3977 173.674 16.5227C173.674 15.6477 173.535 14.8324 173.256 14.0767C172.978 13.321 172.549 12.7102 171.969 12.2443C171.39 11.7784 170.651 11.5455 169.754 11.5455C168.856 11.5455 168.117 11.7784 167.538 12.2443C166.958 12.7102 166.529 13.321 166.251 14.0767C165.972 14.8324 165.833 15.6477 165.833 16.5227C165.833 17.3977 165.972 18.2102 166.251 18.9602C166.529 19.7102 166.958 20.3153 167.538 20.7756C168.117 21.2358 168.856 21.4659 169.754 21.4659ZM184.276 23.2727C183.049 23.2727 181.992 22.983 181.106 22.4034C180.219 21.8239 179.538 21.0256 179.06 20.0085C178.583 18.9915 178.344 17.8295 178.344 16.5227C178.344 15.1932 178.589 14.0199 179.077 13.0028C179.572 11.9801 180.259 11.1818 181.14 10.608C182.026 10.0284 183.06 9.73864 184.242 9.73864C185.163 9.73864 185.992 9.90909 186.731 10.25C187.469 10.5909 188.075 11.0682 188.546 11.6818C189.018 12.2955 189.31 13.0114 189.424 13.8295H187.413C187.259 13.233 186.918 12.7045 186.39 12.2443C185.867 11.7784 185.163 11.5455 184.276 11.5455C183.492 11.5455 182.805 11.75 182.214 12.1591C181.629 12.5625 181.171 13.1335 180.842 13.8722C180.518 14.6051 180.356 15.4659 180.356 16.4545C180.356 17.4659 180.515 18.3466 180.833 19.0966C181.157 19.8466 181.612 20.429 182.197 20.8438C182.788 21.2585 183.481 21.4659 184.276 21.4659C184.799 21.4659 185.273 21.375 185.7 21.1932C186.126 21.0114 186.487 20.75 186.782 20.4091C187.077 20.0682 187.288 19.6591 187.413 19.1818H189.424C189.31 19.9545 189.029 20.6506 188.58 21.2699C188.137 21.8835 187.549 22.3722 186.816 22.7358C186.089 23.0938 185.242 23.2727 184.276 23.2727Z" fill="#15803D"/>
</svg>
