<svg width="260" height="73" viewBox="0 0 260 73" fill="none" xmlns="http://www.w3.org/2000/svg">
<rect width="260" height="73" rx="5" fill="white"/>
<path d="M33.9176 29.5455H37.1136L42.6705 43.1136H42.875L48.4318 29.5455H51.6278V47H49.1222V34.3693H48.9602L43.8125 46.9744H41.733L36.5852 34.3608H36.4233V47H33.9176V29.5455ZM60.8942 47.2642C59.6044 47.2642 58.4936 46.9886 57.5618 46.4375C56.6357 45.8807 55.9197 45.0994 55.4141 44.0938C54.9141 43.0824 54.6641 41.8977 54.6641 40.5398C54.6641 39.1989 54.9141 38.017 55.4141 36.9943C55.9197 35.9716 56.6243 35.1733 57.5277 34.5994C58.4368 34.0256 59.4993 33.7386 60.7152 33.7386C61.4538 33.7386 62.1697 33.8608 62.8629 34.1051C63.5561 34.3494 64.1783 34.733 64.7294 35.2557C65.2805 35.7784 65.7152 36.4574 66.0334 37.2926C66.3516 38.1222 66.5107 39.1307 66.5107 40.3182V41.2216H56.1044V39.3125H64.0135C64.0135 38.642 63.8771 38.0483 63.6044 37.5312C63.3317 37.0085 62.9482 36.5966 62.4538 36.2955C61.9652 35.9943 61.3913 35.8438 60.7322 35.8438C60.0163 35.8438 59.3913 36.0199 58.8572 36.3722C58.3288 36.7187 57.9197 37.1733 57.63 37.7358C57.3459 38.2926 57.2038 38.8977 57.2038 39.5511V41.0426C57.2038 41.9176 57.3572 42.6619 57.6641 43.2756C57.9766 43.8892 58.4112 44.358 58.968 44.6818C59.5249 45 60.1754 45.1591 60.9197 45.1591C61.4027 45.1591 61.843 45.0909 62.2408 44.9545C62.6385 44.8125 62.9822 44.6023 63.272 44.3239C63.5618 44.0455 63.7834 43.7017 63.9368 43.2926L66.3487 43.7273C66.1555 44.4375 65.8089 45.0597 65.3089 45.5938C64.8146 46.1222 64.1925 46.5341 63.4425 46.8295C62.6982 47.1193 61.8487 47.2642 60.8942 47.2642ZM78.2102 39.3551V41.5625H71.1193V39.3551H78.2102ZM71.8352 33.9091V47H69.3381V33.9091H71.8352ZM79.9915 33.9091V47H77.5028V33.9091H79.9915ZM89.0426 47.2642C87.7528 47.2642 86.642 46.9886 85.7102 46.4375C84.7841 45.8807 84.0682 45.0994 83.5625 44.0938C83.0625 43.0824 82.8125 41.8977 82.8125 40.5398C82.8125 39.1989 83.0625 38.017 83.5625 36.9943C84.0682 35.9716 84.7727 35.1733 85.6761 34.5994C86.5852 34.0256 87.6477 33.7386 88.8636 33.7386C89.6023 33.7386 90.3182 33.8608 91.0114 34.1051C91.7045 34.3494 92.3267 34.733 92.8778 35.2557C93.429 35.7784 93.8636 36.4574 94.1818 37.2926C94.5 38.1222 94.6591 39.1307 94.6591 40.3182V41.2216H84.2528V39.3125H92.1619C92.1619 38.642 92.0256 38.0483 91.7528 37.5312C91.4801 37.0085 91.0966 36.5966 90.6023 36.2955C90.1136 35.9943 89.5398 35.8438 88.8807 35.8438C88.1648 35.8438 87.5398 36.0199 87.0057 36.3722C86.4773 36.7187 86.0682 37.1733 85.7784 37.7358C85.4943 38.2926 85.3523 38.8977 85.3523 39.5511V41.0426C85.3523 41.9176 85.5057 42.6619 85.8125 43.2756C86.125 43.8892 86.5597 44.358 87.1165 44.6818C87.6733 45 88.3239 45.1591 89.0682 45.1591C89.5511 45.1591 89.9915 45.0909 90.3892 44.9545C90.7869 44.8125 91.1307 44.6023 91.4205 44.3239C91.7102 44.0455 91.9318 43.7017 92.0852 43.2926L94.4972 43.7273C94.304 44.4375 93.9574 45.0597 93.4574 45.5938C92.9631 46.1222 92.3409 46.5341 91.5909 46.8295C90.8466 47.1193 89.9972 47.2642 89.0426 47.2642ZM96.2081 50.7756V44.7926H97.2734C97.5462 44.5426 97.7763 44.2443 97.9638 43.8977C98.157 43.5511 98.3189 43.1392 98.4496 42.6619C98.5859 42.1847 98.6996 41.6278 98.7905 40.9915C98.8814 40.3494 98.9609 39.6165 99.0291 38.7926L99.4382 33.9091H108.336V44.7926H110.347V50.7756H107.859V47H98.7308V50.7756H96.2081ZM100.001 44.7926H105.847V36.0909H101.722L101.45 38.7926C101.319 40.1676 101.154 41.3608 100.955 42.3722C100.756 43.3778 100.438 44.1847 100.001 44.7926ZM112.003 47L117.074 40.3011L112.062 33.9091H115.028L119.077 39.3466H119.989V33.9091H122.537V39.3466H123.423L127.472 33.9091H130.438L125.452 40.3011L130.497 47H127.472L123.389 41.5455H122.537V47H119.989V41.5455H119.136L115.028 47H112.003ZM138.214 47.2642C136.925 47.2642 135.814 46.9886 134.882 46.4375C133.956 45.8807 133.24 45.0994 132.734 44.0938C132.234 43.0824 131.984 41.8977 131.984 40.5398C131.984 39.1989 132.234 38.017 132.734 36.9943C133.24 35.9716 133.945 35.1733 134.848 34.5994C135.757 34.0256 136.82 33.7386 138.036 33.7386C138.774 33.7386 139.49 33.8608 140.183 34.1051C140.876 34.3494 141.499 34.733 142.05 35.2557C142.601 35.7784 143.036 36.4574 143.354 37.2926C143.672 38.1222 143.831 39.1307 143.831 40.3182V41.2216H133.425V39.3125H141.334C141.334 38.642 141.197 38.0483 140.925 37.5312C140.652 37.0085 140.268 36.5966 139.774 36.2955C139.286 35.9943 138.712 35.8438 138.053 35.8438C137.337 35.8438 136.712 36.0199 136.178 36.3722C135.649 36.7187 135.24 37.1733 134.95 37.7358C134.666 38.2926 134.524 38.8977 134.524 39.5511V41.0426C134.524 41.9176 134.678 42.6619 134.984 43.2756C135.297 43.8892 135.732 44.358 136.288 44.6818C136.845 45 137.496 45.1591 138.24 45.1591C138.723 45.1591 139.163 45.0909 139.561 44.9545C139.959 44.8125 140.303 44.6023 140.592 44.3239C140.882 44.0455 141.104 43.7017 141.257 43.2926L143.669 43.7273C143.476 44.4375 143.129 45.0597 142.629 45.5938C142.135 46.1222 141.513 46.5341 140.763 46.8295C140.018 47.1193 139.169 47.2642 138.214 47.2642ZM146.658 51.9091V33.9091H149.147V36.0312H149.36C149.508 35.7585 149.721 35.4432 149.999 35.0852C150.278 34.7273 150.664 34.4148 151.158 34.1477C151.653 33.875 152.306 33.7386 153.119 33.7386C154.175 33.7386 155.119 34.0057 155.948 34.5398C156.778 35.0739 157.428 35.8437 157.9 36.8494C158.377 37.8551 158.616 39.0653 158.616 40.4801C158.616 41.8949 158.38 43.108 157.908 44.1193C157.437 45.125 156.789 45.9006 155.965 46.446C155.141 46.9858 154.201 47.2557 153.144 47.2557C152.349 47.2557 151.698 47.1222 151.192 46.8551C150.692 46.5881 150.3 46.2756 150.016 45.9176C149.732 45.5597 149.513 45.2415 149.36 44.9631H149.207V51.9091H146.658ZM149.156 40.4545C149.156 41.375 149.289 42.1818 149.556 42.875C149.823 43.5682 150.21 44.1108 150.715 44.5028C151.221 44.8892 151.84 45.0824 152.573 45.0824C153.335 45.0824 153.971 44.8807 154.482 44.4773C154.994 44.0682 155.38 43.5142 155.641 42.8153C155.908 42.1165 156.042 41.3295 156.042 40.4545C156.042 39.5909 155.911 38.8153 155.65 38.1278C155.394 37.4403 155.008 36.8977 154.491 36.5C153.979 36.1023 153.34 35.9034 152.573 35.9034C151.835 35.9034 151.21 36.0937 150.698 36.4744C150.192 36.8551 149.809 37.3864 149.548 38.0682C149.286 38.75 149.156 39.5455 149.156 40.4545Z" fill="black"/>
<path d="M175.32 29.5455V47H172.695V31.7955H164.479V47H161.854V29.5455H175.32ZM178.112 47L178.103 44.7926H178.572C178.935 44.7926 179.239 44.7159 179.484 44.5625C179.734 44.4034 179.938 44.1364 180.097 43.7614C180.256 43.3864 180.379 42.8693 180.464 42.2102C180.549 41.5455 180.612 40.7102 180.651 39.7045L180.881 33.9091H190.018V47H187.521V36.108H183.242L183.038 40.5568C182.987 41.6364 182.876 42.5795 182.705 43.3864C182.54 44.1932 182.299 44.8665 181.981 45.4062C181.663 45.9403 181.254 46.3409 180.754 46.608C180.254 46.8693 179.646 47 178.93 47H178.112ZM200.004 39.4489V41.6648H193.024V39.4489H200.004ZM195.095 33.9091V47H192.547V33.9091H195.095ZM203.993 47.2642C202.777 47.2642 201.714 46.9801 200.805 46.4119C199.896 45.8437 199.192 45.054 198.692 44.0426C198.192 43.0256 197.942 41.8466 197.942 40.5057C197.942 39.1534 198.192 37.9716 198.692 36.9602C199.192 35.9432 199.896 35.1534 200.805 34.5909C201.714 34.0227 202.777 33.7386 203.993 33.7386C205.214 33.7386 206.277 34.0227 207.18 34.5909C208.089 35.1534 208.794 35.9432 209.294 36.9602C209.8 37.9716 210.053 39.1534 210.053 40.5057C210.053 41.8466 209.8 43.0256 209.294 44.0426C208.794 45.054 208.089 45.8437 207.18 46.4119C206.277 46.9801 205.214 47.2642 203.993 47.2642ZM203.993 45.0824C204.817 45.0824 205.49 44.875 206.013 44.4602C206.541 44.0398 206.93 43.483 207.18 42.7898C207.43 42.0966 207.555 41.3352 207.555 40.5057C207.555 39.6705 207.43 38.9062 207.18 38.2131C206.93 37.5142 206.541 36.9545 206.013 36.5341C205.49 36.1136 204.817 35.9034 203.993 35.9034C203.175 35.9034 202.501 36.1136 201.973 36.5341C201.445 36.9545 201.055 37.5142 200.805 38.2131C200.555 38.9062 200.43 39.6705 200.43 40.5057C200.43 41.3352 200.555 42.0966 200.805 42.7898C201.055 43.483 201.445 44.0398 201.973 44.4602C202.501 44.875 203.175 45.0824 203.993 45.0824ZM218.571 47.2642C217.304 47.2642 216.213 46.9773 215.298 46.4034C214.389 45.8239 213.69 45.0256 213.202 44.0085C212.713 42.9915 212.469 41.8267 212.469 40.5142C212.469 39.1847 212.719 38.0114 213.219 36.9943C213.719 35.9716 214.423 35.1733 215.332 34.5994C216.241 34.0256 217.313 33.7386 218.545 33.7386C219.54 33.7386 220.426 33.9233 221.205 34.2926C221.983 34.6562 222.611 35.1676 223.088 35.8267C223.571 36.4858 223.858 37.2557 223.949 38.1364H221.469C221.332 37.5227 221.02 36.9943 220.531 36.5511C220.048 36.108 219.401 35.8864 218.588 35.8864C217.878 35.8864 217.256 36.0739 216.722 36.4489C216.193 36.8182 215.781 37.3466 215.486 38.0341C215.19 38.7159 215.043 39.5227 215.043 40.4545C215.043 41.4091 215.188 42.233 215.477 42.9261C215.767 43.6193 216.176 44.1562 216.705 44.5369C217.239 44.9176 217.866 45.108 218.588 45.108C219.071 45.108 219.509 45.0199 219.901 44.8438C220.298 44.6619 220.631 44.4034 220.898 44.0682C221.17 43.733 221.361 43.3295 221.469 42.858H223.949C223.858 43.7045 223.582 44.4602 223.122 45.125C222.662 45.7898 222.045 46.3125 221.273 46.6932C220.506 47.0739 219.605 47.2642 218.571 47.2642Z" fill="#15803D"/>
</svg>
