<svg width="260" height="73" viewBox="0 0 260 73" fill="none" xmlns="http://www.w3.org/2000/svg">
<rect x="0.5" y="0.5" width="259" height="72" rx="4.5" fill="white" stroke="#15803D"/>
<path d="M36.1136 29.5455H38.6364L44.5682 44.0341H44.7727L50.7045 29.5455H53.2273V47H51.25V33.7386H51.0795L45.625 47H43.7159L38.2614 33.7386H38.0909V47H36.1136V29.5455ZM62.6811 47.2727C61.4197 47.2727 60.3317 46.9943 59.4169 46.4375C58.5078 45.875 57.8061 45.0909 57.3118 44.0852C56.8232 43.0739 56.5788 41.8977 56.5788 40.5568C56.5788 39.2159 56.8232 38.0341 57.3118 37.0114C57.8061 35.983 58.4936 35.1818 59.3743 34.608C60.2607 34.0284 61.2947 33.7386 62.4766 33.7386C63.1584 33.7386 63.8317 33.8523 64.4964 34.0795C65.1612 34.3068 65.7663 34.6761 66.3118 35.1875C66.8572 35.6932 67.2919 36.3636 67.6158 37.1989C67.9396 38.0341 68.1016 39.0625 68.1016 40.2841V41.1364H58.0107V39.3977H66.0561C66.0561 38.6591 65.9084 38 65.6129 37.4205C65.3232 36.8409 64.9084 36.3835 64.3686 36.0483C63.8345 35.7131 63.2038 35.5455 62.4766 35.5455C61.6754 35.5455 60.9822 35.7443 60.397 36.142C59.8175 36.5341 59.3714 37.0455 59.0589 37.6761C58.7464 38.3068 58.5902 38.983 58.5902 39.7045V40.8636C58.5902 41.8523 58.7607 42.6903 59.1016 43.3778C59.4482 44.0597 59.9283 44.5795 60.5419 44.9375C61.1555 45.2898 61.8686 45.4659 62.6811 45.4659C63.2095 45.4659 63.6868 45.392 64.1129 45.2443C64.5447 45.0909 64.9169 44.8636 65.2294 44.5625C65.5419 44.2557 65.7834 43.875 65.9538 43.4205L67.897 43.9659C67.6925 44.625 67.3487 45.2045 66.8658 45.7045C66.3828 46.1989 65.7862 46.5852 65.076 46.8636C64.3658 47.1364 63.5675 47.2727 62.6811 47.2727ZM79.9226 39.5341V41.4091H72.6953V39.5341H79.9226ZM73.1726 33.9091V47H71.1612V33.9091H73.1726ZM81.4567 33.9091V47H79.4453V33.9091H81.4567ZM90.6186 47.2727C89.3572 47.2727 88.2692 46.9943 87.3544 46.4375C86.4453 45.875 85.7436 45.0909 85.2493 44.0852C84.7607 43.0739 84.5163 41.8977 84.5163 40.5568C84.5163 39.2159 84.7607 38.0341 85.2493 37.0114C85.7436 35.983 86.4311 35.1818 87.3118 34.608C88.1982 34.0284 89.2322 33.7386 90.4141 33.7386C91.0959 33.7386 91.7692 33.8523 92.4339 34.0795C93.0987 34.3068 93.7038 34.6761 94.2493 35.1875C94.7947 35.6932 95.2294 36.3636 95.5533 37.1989C95.8771 38.0341 96.0391 39.0625 96.0391 40.2841V41.1364H85.9482V39.3977H93.9936C93.9936 38.6591 93.8459 38 93.5504 37.4205C93.2607 36.8409 92.8459 36.3835 92.3061 36.0483C91.772 35.7131 91.1413 35.5455 90.4141 35.5455C89.6129 35.5455 88.9197 35.7443 88.3345 36.142C87.755 36.5341 87.3089 37.0455 86.9964 37.6761C86.6839 38.3068 86.5277 38.983 86.5277 39.7045V40.8636C86.5277 41.8523 86.6982 42.6903 87.0391 43.3778C87.3857 44.0597 87.8658 44.5795 88.4794 44.9375C89.093 45.2898 89.8061 45.4659 90.6186 45.4659C91.147 45.4659 91.6243 45.392 92.0504 45.2443C92.4822 45.0909 92.8544 44.8636 93.1669 44.5625C93.4794 44.2557 93.7209 43.875 93.8913 43.4205L95.8345 43.9659C95.63 44.625 95.2862 45.2045 94.8033 45.7045C94.3203 46.1989 93.7237 46.5852 93.0135 46.8636C92.3033 47.1364 91.505 47.2727 90.6186 47.2727ZM97.701 50.75V45.125H98.7919C99.0589 44.8466 99.2891 44.5455 99.4822 44.2216C99.6754 43.8977 99.843 43.5142 99.9851 43.071C100.133 42.6222 100.258 42.0767 100.36 41.4347C100.462 40.7869 100.553 40.0057 100.633 39.0909L101.076 33.9091H109.394V45.125H111.406V50.75H109.394V47H99.7124V50.75H97.701ZM101.076 45.125H107.383V35.7841H102.951L102.61 39.0909C102.468 40.4602 102.292 41.6562 102.082 42.679C101.871 43.7017 101.536 44.517 101.076 45.125ZM113.257 47L118.575 40.3523L113.325 33.9091H115.712L120.075 39.5H121.166V33.9091H123.178V39.5H124.234L128.598 33.9091H130.984L125.768 40.3523L131.053 47H128.632L124.2 41.375H123.178V47H121.166V41.375H120.143L115.678 47H113.257ZM138.876 47.2727C137.615 47.2727 136.527 46.9943 135.612 46.4375C134.703 45.875 134.001 45.0909 133.507 44.0852C133.018 43.0739 132.774 41.8977 132.774 40.5568C132.774 39.2159 133.018 38.0341 133.507 37.0114C134.001 35.983 134.689 35.1818 135.57 34.608C136.456 34.0284 137.49 33.7386 138.672 33.7386C139.354 33.7386 140.027 33.8523 140.692 34.0795C141.357 34.3068 141.962 34.6761 142.507 35.1875C143.053 35.6932 143.487 36.3636 143.811 37.1989C144.135 38.0341 144.297 39.0625 144.297 40.2841V41.1364H134.206V39.3977H142.251C142.251 38.6591 142.104 38 141.808 37.4205C141.518 36.8409 141.104 36.3835 140.564 36.0483C140.03 35.7131 139.399 35.5455 138.672 35.5455C137.871 35.5455 137.178 35.7443 136.592 36.142C136.013 36.5341 135.567 37.0455 135.254 37.6761C134.942 38.3068 134.786 38.983 134.786 39.7045V40.8636C134.786 41.8523 134.956 42.6903 135.297 43.3778C135.643 44.0597 136.124 44.5795 136.737 44.9375C137.351 45.2898 138.064 45.4659 138.876 45.4659C139.405 45.4659 139.882 45.392 140.308 45.2443C140.74 45.0909 141.112 44.8636 141.425 44.5625C141.737 44.2557 141.979 43.875 142.149 43.4205L144.092 43.9659C143.888 44.625 143.544 45.2045 143.061 45.7045C142.578 46.1989 141.982 46.5852 141.271 46.8636C140.561 47.1364 139.763 47.2727 138.876 47.2727ZM147.357 51.9091V33.9091H149.3V35.9886H149.538C149.686 35.7614 149.891 35.4716 150.152 35.1193C150.419 34.7614 150.8 34.4432 151.294 34.1648C151.794 33.8807 152.47 33.7386 153.322 33.7386C154.425 33.7386 155.396 34.0142 156.237 34.5653C157.078 35.1165 157.734 35.8977 158.206 36.9091C158.678 37.9205 158.913 39.1136 158.913 40.4886C158.913 41.875 158.678 43.0767 158.206 44.0938C157.734 45.1051 157.081 45.8892 156.246 46.446C155.411 46.9972 154.447 47.2727 153.357 47.2727C152.516 47.2727 151.842 47.1335 151.337 46.8551C150.831 46.571 150.442 46.25 150.169 45.892C149.896 45.5284 149.686 45.2273 149.538 44.9886H149.368V51.9091H147.357ZM149.334 40.4545C149.334 41.4432 149.479 42.3153 149.768 43.071C150.058 43.821 150.482 44.4091 151.038 44.8352C151.595 45.2557 152.277 45.4659 153.084 45.4659C153.925 45.4659 154.626 45.2443 155.189 44.8011C155.757 44.3523 156.183 43.75 156.467 42.9943C156.757 42.233 156.902 41.3864 156.902 40.4545C156.902 39.5341 156.76 38.7045 156.476 37.9659C156.197 37.2216 155.774 36.6335 155.206 36.2017C154.643 35.7642 153.936 35.5455 153.084 35.5455C152.266 35.5455 151.578 35.7528 151.021 36.1676C150.464 36.5767 150.044 37.1506 149.76 37.8892C149.476 38.6222 149.334 39.4773 149.334 40.4545Z" fill="black"/>
<path d="M175.311 29.5455V47H173.197V31.4205H164.402V47H162.288V29.5455H175.311ZM178.143 47V45.125H178.62C179.012 45.125 179.339 45.0483 179.6 44.8949C179.862 44.7358 180.072 44.4602 180.231 44.0682C180.396 43.6705 180.521 43.1193 180.606 42.4148C180.697 41.7045 180.762 40.8011 180.802 39.7045L181.04 33.9091H189.768V47H187.756V35.7841H182.95L182.745 40.4545C182.7 41.5284 182.603 42.4744 182.455 43.2926C182.313 44.1051 182.094 44.7869 181.799 45.3381C181.509 45.8892 181.123 46.304 180.64 46.5824C180.157 46.8608 179.552 47 178.825 47H178.143ZM199.731 39.6364V41.5114H192.81V39.6364H199.731ZM194.515 33.9091V47H192.504V33.9091H194.515ZM203.754 47.2727C202.572 47.2727 201.535 46.9915 200.643 46.429C199.756 45.8665 199.063 45.0795 198.563 44.0682C198.069 43.0568 197.822 41.875 197.822 40.5227C197.822 39.1591 198.069 37.9687 198.563 36.9517C199.063 35.9347 199.756 35.1449 200.643 34.5824C201.535 34.0199 202.572 33.7386 203.754 33.7386C204.935 33.7386 205.969 34.0199 206.856 34.5824C207.748 35.1449 208.441 35.9347 208.935 36.9517C209.435 37.9687 209.685 39.1591 209.685 40.5227C209.685 41.875 209.435 43.0568 208.935 44.0682C208.441 45.0795 207.748 45.8665 206.856 46.429C205.969 46.9915 204.935 47.2727 203.754 47.2727ZM203.754 45.4659C204.651 45.4659 205.39 45.2358 205.969 44.7756C206.549 44.3153 206.978 43.7102 207.256 42.9602C207.535 42.2102 207.674 41.3977 207.674 40.5227C207.674 39.6477 207.535 38.8324 207.256 38.0767C206.978 37.321 206.549 36.7102 205.969 36.2443C205.39 35.7784 204.651 35.5455 203.754 35.5455C202.856 35.5455 202.117 35.7784 201.538 36.2443C200.958 36.7102 200.529 37.321 200.251 38.0767C199.972 38.8324 199.833 39.6477 199.833 40.5227C199.833 41.3977 199.972 42.2102 200.251 42.9602C200.529 43.7102 200.958 44.3153 201.538 44.7756C202.117 45.2358 202.856 45.4659 203.754 45.4659ZM218.276 47.2727C217.049 47.2727 215.992 46.983 215.106 46.4034C214.219 45.8239 213.538 45.0256 213.06 44.0085C212.583 42.9915 212.344 41.8295 212.344 40.5227C212.344 39.1932 212.589 38.0199 213.077 37.0028C213.572 35.9801 214.259 35.1818 215.14 34.608C216.026 34.0284 217.06 33.7386 218.242 33.7386C219.163 33.7386 219.992 33.9091 220.731 34.25C221.469 34.5909 222.075 35.0682 222.546 35.6818C223.018 36.2955 223.31 37.0114 223.424 37.8295H221.413C221.259 37.233 220.918 36.7045 220.39 36.2443C219.867 35.7784 219.163 35.5455 218.276 35.5455C217.492 35.5455 216.805 35.75 216.214 36.1591C215.629 36.5625 215.171 37.1335 214.842 37.8722C214.518 38.6051 214.356 39.4659 214.356 40.4545C214.356 41.4659 214.515 42.3466 214.833 43.0966C215.157 43.8466 215.612 44.429 216.197 44.8438C216.788 45.2585 217.481 45.4659 218.276 45.4659C218.799 45.4659 219.273 45.375 219.7 45.1932C220.126 45.0114 220.487 44.75 220.782 44.4091C221.077 44.0682 221.288 43.6591 221.413 43.1818H223.424C223.31 43.9545 223.029 44.6506 222.58 45.2699C222.137 45.8835 221.549 46.3722 220.816 46.7358C220.089 47.0938 219.242 47.2727 218.276 47.2727Z" fill="#15803D"/>
</svg>
